<svg xmlns="http://www.w3.org/2000/svg" width="1100" height="260" viewBox="0 0 1100 260" role="img" aria-label="GOTHICLOSER - professional shower not-taker">
  <defs>
    <linearGradient id="bg" x1="0" y1="0" x2="0" y2="260" gradientUnits="userSpaceOnUse">
      <stop offset="0%" stop-color="#0d0716"/><stop offset="50%" stop-color="#050208"/><stop offset="100%" stop-color="#0d0716"/>
    </linearGradient>
    <linearGradient id="ink" x1="240" y1="0" x2="860" y2="0" gradientUnits="userSpaceOnUse">
      <stop offset="0%" stop-color="#8b5cf6"/><stop offset="50%" stop-color="#f5f3ff"/><stop offset="100%" stop-color="#8b5cf6"/>
    </linearGradient>
    <linearGradient id="rule" x1="80" y1="0" x2="1020" y2="0" gradientUnits="userSpaceOnUse">
      <stop offset="0%" stop-color="#7c3aed" stop-opacity="0"/><stop offset="50%" stop-color="#8b5cf6" stop-opacity="1"/><stop offset="100%" stop-color="#7c3aed" stop-opacity="0"/>
    </linearGradient>
  </defs>
  <rect width="1100" height="260" rx="18" fill="url(#bg)"/>
  <rect x="14" y="14" width="1072" height="232" rx="12" fill="none" stroke="#3b1876" stroke-width="1.2"/>
  <line x1="80" y1="64" x2="1020" y2="64" stroke="url(#rule)" stroke-width="1.4"/>
  <line x1="80" y1="200" x2="1020" y2="200" stroke="url(#rule)" stroke-width="1.4"/>
  <g fill="none" stroke="#a78bfa" stroke-width="1.7" stroke-linecap="round" stroke-linejoin="round">
    <g transform="translate(210 132)"><path d="M0 -14 C6 -5 10 0 10 4 A10 10 0 1 1 -10 4 C-10 0 -6 -5 0 -14 Z"/><line x1="-14" y1="12" x2="14" y2="-12"/></g>
    <g transform="translate(890 132)"><path d="M0 -14 C6 -5 10 0 10 4 A10 10 0 1 1 -10 4 C-10 0 -6 -5 0 -14 Z"/><line x1="-14" y1="12" x2="14" y2="-12"/></g>
  </g>
  <text x="550" y="152" text-anchor="middle" fill="url(#ink)" font-family="Georgia, 'Palatino Linotype', Palatino, 'Times New Roman', serif" font-size="72" font-weight="700" letter-spacing="0.13em">GOTHICLOSER</text>
  <text x="550" y="184" text-anchor="middle" fill="#a78bfa" font-family="Georgia, 'Palatino Linotype', Palatino, 'Times New Roman', serif" font-size="15" letter-spacing="0.32em">PROFESSIONAL SHOWER NOT-TAKER</text>
  <text x="550" y="232" text-anchor="middle" fill="#7c3aed" font-family="Georgia, 'Palatino Linotype', Palatino, 'Times New Roman', serif" font-size="11" letter-spacing="0.28em">EST. 5787 &#183; SHOWER-FREE SINCE BIRTH</text>
</svg>